<svg xmlns="http://www.w3.org/2000/svg" viewBox="0 0 48 48">
  <defs>
    <linearGradient id="sg48" x1="0%" y1="0%" x2="100%" y2="100%">
      <stop offset="0%" stop-color="#3B82F6"/>
      <stop offset="100%" stop-color="#1D4ED8"/>
    </linearGradient>
  </defs>
  <path d="M24 3 L42 10.5 L42 22.5 C42 33.75 33.75 41.25 24 45 C14.25 41.25 6 33.75 6 22.5 L6 10.5 Z" fill="url(#sg48)" stroke="#1E40AF" stroke-width="1"/>
  <g transform="translate(12, 14)">
    <rect x="0" y="0" width="10" height="10" rx="1.5" fill="#10B981"/>
    <rect x="12" y="0" width="10" height="10" rx="1.5" fill="#F59E0B"/>
    <rect x="0" y="12" width="10" height="10" rx="1.5" fill="#EF4444"/>
    <rect x="12" y="12" width="10" height="10" rx="1.5" fill="#8B5CF6"/>
  </g>
  <g transform="translate(20, 20)">
    <rect x="1" y="3" width="6" height="4.5" rx="0.75" fill="white"/>
    <path d="M2 3 L2 1.5 C2 0.5 3 0 4 0 C5 0 6 0.5 6 1.5 L6 3" fill="none" stroke="white" stroke-width="1" stroke-linecap="round"/>
  </g>
</svg>
