<svg xmlns="http://www.w3.org/2000/svg" viewBox="0 0 96 96">
  <defs>
    <linearGradient id="sg96" x1="0%" y1="0%" x2="100%" y2="100%">
      <stop offset="0%" stop-color="#3B82F6"/>
      <stop offset="100%" stop-color="#1D4ED8"/>
    </linearGradient>
  </defs>
  <path d="M48 6 L84 21 L84 45 C84 67.5 67.5 82.5 48 90 C28.5 82.5 12 67.5 12 45 L12 21 Z" fill="url(#sg96)" stroke="#1E40AF" stroke-width="1.5"/>
  <g transform="translate(24, 28)">
    <rect x="0" y="0" width="20" height="20" rx="3" fill="#10B981"/>
    <rect x="24" y="0" width="20" height="20" rx="3" fill="#F59E0B"/>
    <rect x="0" y="24" width="20" height="20" rx="3" fill="#EF4444"/>
    <rect x="24" y="24" width="20" height="20" rx="3" fill="#8B5CF6"/>
  </g>
  <g transform="translate(40, 40)">
    <rect x="2" y="6" width="12" height="9" rx="1.5" fill="white"/>
    <path d="M4 6 L4 3 C4 1 6 0 8 0 C10 0 12 1 12 3 L12 6" fill="none" stroke="white" stroke-width="2" stroke-linecap="round"/>
  </g>
</svg>
