<svg xmlns="http://www.w3.org/2000/svg" viewBox="0 0 128 128">
  <defs>
    <linearGradient id="shieldGradient128" x1="0%" y1="0%" x2="100%" y2="100%">
      <stop offset="0%" stop-color="#3B82F6"/>
      <stop offset="100%" stop-color="#1D4ED8"/>
    </linearGradient>
  </defs>
  <path d="M64 8 L112 28 L112 60 C112 90 90 110 64 120 C38 110 16 90 16 60 L16 28 Z" fill="url(#shieldGradient128)" stroke="#1E40AF" stroke-width="2"/>
  <g transform="translate(32, 38)">
    <rect x="0" y="0" width="26" height="26" rx="4" fill="#10B981"/>
    <rect x="32" y="0" width="26" height="26" rx="4" fill="#F59E0B"/>
    <rect x="0" y="32" width="26" height="26" rx="4" fill="#EF4444"/>
    <rect x="32" y="32" width="26" height="26" rx="4" fill="#8B5CF6"/>
  </g>
  <g transform="translate(54, 54)">
    <rect x="2" y="8" width="16" height="12" rx="2" fill="white"/>
    <path d="M5 8 L5 4 C5 1.5 7.5 0 10 0 C12.5 0 15 1.5 15 4 L15 8" fill="none" stroke="white" stroke-width="2.5" stroke-linecap="round"/>
  </g>
</svg>
